<svg id="ek2omF7utZx1" xmlns="http://www.w3.org/2000/svg" xmlns:xlink="http://www.w3.org/1999/xlink" viewBox="0 0 1920 583" shape-rendering="geometricPrecision" text-rendering="geometricPrecision">
<style><![CDATA[
#ek2omF7utZx5_to {animation: ek2omF7utZx5_to__to 10000ms linear infinite normal forwards}@keyframes ek2omF7utZx5_to__to { 0% {transform: translate(577.519958px,407.399994px);animation-timing-function: cubic-bezier(0.445,0.05,0.55,0.95)} 5% {transform: translate(577.519958px,369.432277px);animation-timing-function: cubic-bezier(0.445,0.05,0.55,0.95)} 10% {transform: translate(577.519958px,407.399994px)} 100% {transform: translate(577.519958px,407.399994px)}} #ek2omF7utZx6_to {animation: ek2omF7utZx6_to__to 10000ms linear infinite normal forwards}@keyframes ek2omF7utZx6_to__to { 0% {transform: translate(652.285065px,418.424927px)} 1% {transform: translate(652.285065px,418.424927px);animation-timing-function: cubic-bezier(0.445,0.05,0.55,0.95)} 6% {transform: translate(652.285065px,380.457211px);animation-timing-function: cubic-bezier(0.445,0.05,0.55,0.95)} 11% {transform: translate(652.285065px,418.424927px)} 100% {transform: translate(652.285065px,418.424927px)}} #ek2omF7utZx7_to {animation: ek2omF7utZx7_to__to 10000ms linear infinite normal forwards}@keyframes ek2omF7utZx7_to__to { 0% {transform: translate(727.274994px,418.389999px)} 2% {transform: translate(727.274994px,418.389999px);animation-timing-function: cubic-bezier(0.445,0.05,0.55,0.95)} 7% {transform: translate(727.274994px,380.422283px);animation-timing-function: cubic-bezier(0.445,0.05,0.55,0.95)} 12% {transform: translate(727.274994px,418.389999px)} 100% {transform: translate(727.274994px,418.389999px)}} #ek2omF7utZx8_to {animation: ek2omF7utZx8_to__to 10000ms linear infinite normal forwards}@keyframes ek2omF7utZx8_to__to { 0% {transform: translate(802.175079px,428.11998px)} 3% {transform: translate(802.175079px,428.11998px);animation-timing-function: cubic-bezier(0.445,0.05,0.55,0.95)} 8% {transform: translate(802.175079px,390.152263px);animation-timing-function: cubic-bezier(0.445,0.05,0.55,0.95)} 13% {transform: translate(802.175079px,428.11998px)} 100% {transform: translate(802.175079px,428.11998px)}} #ek2omF7utZx9_to {animation: ek2omF7utZx9_to__to 10000ms linear infinite normal forwards}@keyframes ek2omF7utZx9_to__to { 0% {transform: translate(877.019928px,418.395081px)} 4% {transform: translate(877.019928px,418.395081px);animation-timing-function: cubic-bezier(0.445,0.05,0.55,0.95)} 9% {transform: translate(877.019928px,380.427364px);animation-timing-function: cubic-bezier(0.445,0.05,0.55,0.95)} 14% {transform: translate(877.019928px,418.395081px)} 100% {transform: translate(877.019928px,418.395081px)}} #ek2omF7utZx10_to {animation: ek2omF7utZx10_to__to 10000ms linear infinite normal forwards}@keyframes ek2omF7utZx10_to__to { 0% {transform: translate(951.954926px,418.349991px)} 5% {transform: translate(951.954926px,418.349991px);animation-timing-function: cubic-bezier(0.445,0.05,0.55,0.95)} 10% {transform: translate(951.954926px,380.382275px);animation-timing-function: cubic-bezier(0.445,0.05,0.55,0.95)} 15% {transform: translate(951.954926px,418.349991px)} 100% {transform: translate(951.954926px,418.349991px)}} #ek2omF7utZx11_to {animation: ek2omF7utZx11_to__to 10000ms linear infinite normal forwards}@keyframes ek2omF7utZx11_to__to { 0% {transform: translate(1026.785095px,405.089966px)} 6% {transform: translate(1026.785095px,405.089966px);animation-timing-function: cubic-bezier(0.445,0.05,0.55,0.95)} 11% {transform: translate(1026.785095px,367.122249px);animation-timing-function: cubic-bezier(0.445,0.05,0.55,0.95)} 16% {transform: translate(1026.785095px,405.089966px)} 100% {transform: translate(1026.785095px,405.089966px)}} #ek2omF7utZx12_to {animation: ek2omF7utZx12_to__to 10000ms linear infinite normal forwards}@keyframes ek2omF7utZx12_to__to { 0% {transform: translate(1176.715027px,407.39003px)} 7% {transform: translate(1176.715027px,407.39003px);animation-timing-function: cubic-bezier(0.445,0.05,0.55,0.95)} 12% {transform: translate(1176.715027px,369.422314px);animation-timing-function: cubic-bezier(0.445,0.05,0.55,0.95)} 17% {transform: translate(1176.715027px,407.39003px)} 100% {transform: translate(1176.715027px,407.39003px)}} #ek2omF7utZx13_to {animation: ek2omF7utZx13_to__to 10000ms linear infinite normal forwards}@keyframes ek2omF7utZx13_to__to { 0% {transform: translate(1251.485046px,418.283798px)} 8% {transform: translate(1251.485046px,418.283798px);animation-timing-function: cubic-bezier(0.445,0.05,0.55,0.95)} 13% {transform: translate(1251.485046px,380.316081px);animation-timing-function: cubic-bezier(0.445,0.05,0.55,0.95)} 18% {transform: translate(1251.485046px,418.283798px)} 100% {transform: translate(1251.485046px,418.283798px)}} #ek2omF7utZx14_to {animation: ek2omF7utZx14_to__to 10000ms linear infinite normal forwards}@keyframes ek2omF7utZx14_to__to { 0% {transform: translate(1326.316162px,407.445007px)} 9% {transform: translate(1326.316162px,407.445007px);animation-timing-function: cubic-bezier(0.445,0.05,0.55,0.95)} 14% {transform: translate(1326.316162px,369.477291px);animation-timing-function: cubic-bezier(0.445,0.05,0.55,0.95)} 19% {transform: translate(1326.316162px,407.445007px)} 100% {transform: translate(1326.316162px,407.445007px)}} #ek2omF7utZx15_to {animation: ek2omF7utZx15_to__to 10000ms linear infinite normal forwards}@keyframes ek2omF7utZx15_to__to { 0% {transform: translate(1401.205078px,409.634964px)} 10% {transform: translate(1401.205078px,409.634964px);animation-timing-function: cubic-bezier(0.445,0.05,0.55,0.95)} 15% {transform: translate(1401.205078px,371.667248px);animation-timing-function: cubic-bezier(0.445,0.05,0.55,0.95)} 20% {transform: translate(1401.205078px,409.634964px)} 100% {transform: translate(1401.205078px,409.634964px)}} #ek2omF7utZx16_to {animation: ek2omF7utZx16_to__to 10000ms linear infinite normal forwards}@keyframes ek2omF7utZx16_to__to { 0% {transform: translate(1476.1651px,405.089966px)} 11% {transform: translate(1476.1651px,405.089966px);animation-timing-function: cubic-bezier(0.445,0.05,0.55,0.95)} 16% {transform: translate(1476.1651px,367.122249px);animation-timing-function: cubic-bezier(0.445,0.05,0.55,0.95)} 21% {transform: translate(1476.1651px,405.089966px)} 100% {transform: translate(1476.1651px,405.089966px)}} #ek2omF7utZx17_to {animation: ek2omF7utZx17_to__to 10000ms linear infinite normal forwards}@keyframes ek2omF7utZx17_to__to { 0% {transform: translate(1551.166199px,418.335007px)} 12% {transform: translate(1551.166199px,418.335007px);animation-timing-function: cubic-bezier(0.445,0.05,0.55,0.95)} 17% {transform: translate(1551.166199px,380.367291px);animation-timing-function: cubic-bezier(0.445,0.05,0.55,0.95)} 22% {transform: translate(1551.166199px,418.335007px)} 100% {transform: translate(1551.166199px,418.335007px)}} #ek2omF7utZx18_to {animation: ek2omF7utZx18_to__to 10000ms linear infinite normal forwards}@keyframes ek2omF7utZx18_to__to { 0% {transform: translate(1625.990051px,418.395081px)} 13% {transform: translate(1625.990051px,418.395081px);animation-timing-function: cubic-bezier(0.445,0.05,0.55,0.95)} 18% {transform: translate(1625.990051px,380.427364px);animation-timing-function: cubic-bezier(0.445,0.05,0.55,0.95)} 23% {transform: translate(1625.990051px,418.395081px)} 100% {transform: translate(1625.990051px,418.395081px)}} #ek2omF7utZx19_to {animation: ek2omF7utZx19_to__to 10000ms linear infinite normal forwards}@keyframes ek2omF7utZx19_to__to { 0% {transform: translate(1700.966248px,418.335007px)} 14% {transform: translate(1700.966248px,418.335007px);animation-timing-function: cubic-bezier(0.445,0.05,0.55,0.95)} 19% {transform: translate(1700.966248px,380.367291px);animation-timing-function: cubic-bezier(0.445,0.05,0.55,0.95)} 24% {transform: translate(1700.966248px,418.335007px)} 100% {transform: translate(1700.966248px,418.335007px)}} #ek2omF7utZx21_to {animation: ek2omF7utZx21_to__to 10000ms linear infinite normal forwards}@keyframes ek2omF7utZx21_to__to { 0% {transform: translate(709.008775px,656.26004px);animation-timing-function: cubic-bezier(0.445,0.05,0.55,0.95)} 50% {transform: translate(712.164248px,722.242344px);animation-timing-function: cubic-bezier(0.445,0.05,0.55,0.95)} 100% {transform: translate(709.008775px,656.26004px)}} #ek2omF7utZx44_to {animation: ek2omF7utZx44_to__to 10000ms linear infinite normal forwards}@keyframes ek2omF7utZx44_to__to { 0% {transform: translate(198.01378px,498.795013px);animation-timing-function: cubic-bezier(0.445,0.05,0.55,0.95)} 50% {transform: translate(201.169252px,564.777314px);animation-timing-function: cubic-bezier(0.445,0.05,0.55,0.95)} 100% {transform: translate(198.01378px,498.795013px)}} #ek2omF7utZx48_to {animation: ek2omF7utZx48_to__to 10000ms linear infinite normal forwards}@keyframes ek2omF7utZx48_to__to { 0% {transform: translate(604.833787px,112.905003px);animation-timing-function: cubic-bezier(0.445,0.05,0.55,0.95)} 50% {transform: translate(607.98926px,137.609254px);animation-timing-function: cubic-bezier(0.445,0.05,0.55,0.95)} 100% {transform: translate(604.833787px,112.905003px)}} #ek2omF7utZx64_to {animation: ek2omF7utZx64_to__to 10000ms linear infinite normal forwards}@keyframes ek2omF7utZx64_to__to { 0% {transform: translate(799.703782px,541.26001px);animation-timing-function: cubic-bezier(0.445,0.05,0.55,0.95)} 50% {transform: translate(802.859255px,607.242312px);animation-timing-function: cubic-bezier(0.445,0.05,0.55,0.95)} 100% {transform: translate(799.703782px,541.26001px)}} #ek2omF7utZx67_to {animation: ek2omF7utZx67_to__to 10000ms linear infinite normal forwards}@keyframes ek2omF7utZx67_to__to { 0% {transform: translate(346.863771px,106.575001px);animation-timing-function: cubic-bezier(0.445,0.05,0.55,0.95)} 50% {transform: translate(350.019243px,172.557301px);animation-timing-function: cubic-bezier(0.445,0.05,0.55,0.95)} 100% {transform: translate(346.863771px,106.575001px)}} #ek2omF7utZx71_to {animation: ek2omF7utZx71_to__to 10000ms linear infinite normal forwards}@keyframes ek2omF7utZx71_to__to { 0% {transform: translate(141.643773px,209.730003px);animation-timing-function: cubic-bezier(0.445,0.05,0.55,0.95)} 50% {transform: translate(144.799246px,275.712303px);animation-timing-function: cubic-bezier(0.445,0.05,0.55,0.95)} 100% {transform: translate(141.643773px,209.730003px)}} #ek2omF7utZx92_to {animation: ek2omF7utZx92_to__to 10000ms linear infinite normal forwards}@keyframes ek2omF7utZx92_to__to { 0% {transform: translate(141.643773px,77.285002px);animation-timing-function: cubic-bezier(0.445,0.05,0.55,0.95)} 50% {transform: translate(144.799246px,143.267302px);animation-timing-function: cubic-bezier(0.445,0.05,0.55,0.95)} 100% {transform: translate(141.643773px,77.285002px)}} #ek2omF7utZx113_to {animation: ek2omF7utZx113_to__to 10000ms linear infinite normal forwards}@keyframes ek2omF7utZx113_to__to { 0% {transform: translate(210.941px,267.327px);animation-timing-function: cubic-bezier(0.445,0.05,0.55,0.95)} 50% {transform: translate(210.941px,226.048952px);animation-timing-function: cubic-bezier(0.445,0.05,0.55,0.95)} 100% {transform: translate(210.941px,267.327px)}} #ek2omF7utZx114_to {animation: ek2omF7utZx114_to__to 10000ms linear infinite normal forwards}@keyframes ek2omF7utZx114_to__to { 0% {transform: translate(920.624px,103.391px);animation-timing-function: cubic-bezier(0.445,0.05,0.55,0.95)} 50% {transform: translate(920.624px,62.112952px);animation-timing-function: cubic-bezier(0.445,0.05,0.55,0.95)} 100% {transform: translate(920.624px,103.391px)}} #ek2omF7utZx116_to {animation: ek2omF7utZx116_to__to 10000ms linear infinite normal forwards}@keyframes ek2omF7utZx116_to__to { 0% {transform: translate(340.384979px,190.904991px);animation-timing-function: cubic-bezier(0.445,0.05,0.55,0.95)} 50% {transform: translate(340.384979px,149.626943px);animation-timing-function: cubic-bezier(0.445,0.05,0.55,0.95)} 100% {transform: translate(340.384979px,190.904991px)}} #ek2omF7utZx119_to {animation: ek2omF7utZx119_to__to 10000ms linear infinite normal forwards}@keyframes ek2omF7utZx119_to__to { 0% {transform: translate(444.609985px,601.97998px);animation-timing-function: cubic-bezier(0.445,0.05,0.55,0.95)} 50% {transform: translate(444.609985px,560.701932px);animation-timing-function: cubic-bezier(0.445,0.05,0.55,0.95)} 100% {transform: translate(444.609985px,601.97998px)}} #ek2omF7utZx120_to {animation: ek2omF7utZx120_to__to 10000ms linear infinite normal forwards}@keyframes ek2omF7utZx120_to__to { 0% {transform: translate(393.264999px,614.980011px);animation-timing-function: cubic-bezier(0.445,0.05,0.55,0.95)} 50% {transform: translate(393.264999px,573.701961px);animation-timing-function: cubic-bezier(0.445,0.05,0.55,0.95)} 100% {transform: translate(393.264999px,614.980011px)}} #ek2omF7utZx128_to {animation: ek2omF7utZx128_to__to 10000ms linear infinite normal forwards}@keyframes ek2omF7utZx128_to__to { 0% {transform: translate(67.528775px,367.93px);animation-timing-function: cubic-bezier(0.445,0.05,0.55,0.95)} 50% {transform: translate(70.684247px,433.9123px);animation-timing-function: cubic-bezier(0.445,0.05,0.55,0.95)} 100% {transform: translate(67.528775px,367.93px)}} #ek2omF7utZx129_to {animation: ek2omF7utZx129_to__to 10000ms linear infinite normal forwards}@keyframes ek2omF7utZx129_to__to { 0% {transform: translate(157.698775px,367.93px);animation-timing-function: cubic-bezier(0.445,0.05,0.55,0.95)} 50% {transform: translate(160.854248px,433.9123px);animation-timing-function: cubic-bezier(0.445,0.05,0.55,0.95)} 100% {transform: translate(157.698775px,367.93px)}} #ek2omF7utZx130_to {animation: ek2omF7utZx130_to__to 10000ms linear infinite normal forwards}@keyframes ek2omF7utZx130_to__to { 0% {transform: translate(583.130005px,547.330017px);animation-timing-function: cubic-bezier(0.445,0.05,0.55,0.95)} 50% {transform: translate(583.130005px,506.051966px);animation-timing-function: cubic-bezier(0.445,0.05,0.55,0.95)} 100% {transform: translate(583.130005px,547.330017px)}} #ek2omF7utZx133_to {animation: ek2omF7utZx133_to__to 10000ms linear infinite normal forwards}@keyframes ek2omF7utZx133_to__to { 0% {transform: translate(587.551px,702.061px);animation-timing-function: cubic-bezier(0.445,0.05,0.55,0.95)} 50% {transform: translate(587.551px,660.782952px);animation-timing-function: cubic-bezier(0.445,0.05,0.55,0.95)} 100% {transform: translate(587.551px,702.061px)}} #ek2omF7utZx134_to {animation: ek2omF7utZx134_to__to 10000ms linear infinite normal forwards}@keyframes ek2omF7utZx134_to__to { 0% {transform: translate(1097.390015px,144.935005px);animation-timing-function: cubic-bezier(0.445,0.05,0.55,0.95)} 50% {transform: translate(1100.545488px,210.917304px);animation-timing-function: cubic-bezier(0.445,0.05,0.55,0.95)} 100% {transform: translate(1097.390015px,144.935005px)}} #ek2omF7utZx158_to {animation: ek2omF7utZx158_to__to 10000ms linear infinite normal forwards}@keyframes ek2omF7utZx158_to__to { 0% {transform: translate(798.936px,256.57px);animation-timing-function: cubic-bezier(0.445,0.05,0.55,0.95)} 50% {transform: translate(798.936px,215.291952px);animation-timing-function: cubic-bezier(0.445,0.05,0.55,0.95)} 100% {transform: translate(798.936px,256.57px)}} #ek2omF7utZx161_to {animation: ek2omF7utZx161_to__to 10000ms linear infinite normal forwards}@keyframes ek2omF7utZx161_to__to { 0% {transform: translate(1771.580017px,650.615021px);animation-timing-function: cubic-bezier(0.445,0.05,0.55,0.95)} 50% {transform: translate(1774.580027px,594.177321px);animation-timing-function: cubic-bezier(0.445,0.05,0.55,0.95)} 100% {transform: translate(1771.580017px,650.615021px)}} #ek2omF7utZx184_to {animation: ek2omF7utZx184_to__to 10000ms linear infinite normal forwards}@keyframes ek2omF7utZx184_to__to { 0% {transform: translate(0.409941px,-71.33px);animation-timing-function: cubic-bezier(0.445,0.05,0.55,0.95)} 50% {transform: translate(0.651946px,-31.418048px);animation-timing-function: cubic-bezier(0.445,0.05,0.55,0.95)} 100% {transform: translate(0.409941px,-71.33px)}} #ek2omF7utZx188_to {animation: ek2omF7utZx188_to__to 10000ms linear infinite normal forwards}@keyframes ek2omF7utZx188_to__to { 0% {transform: translate(1667.399963px,107.255005px);animation-timing-function: cubic-bezier(0.445,0.05,0.55,0.95)} 50% {transform: translate(1670.399974px,50.817284px);animation-timing-function: cubic-bezier(0.445,0.05,0.55,0.95)} 100% {transform: translate(1667.399963px,107.255005px)}} #ek2omF7utZx205_to {animation: ek2omF7utZx205_to__to 10000ms linear infinite normal forwards}@keyframes ek2omF7utZx205_to__to { 0% {transform: translate(1892.405029px,500.87001px);animation-timing-function: cubic-bezier(0.445,0.05,0.55,0.95)} 50% {transform: translate(1895.405039px,444.432294px);animation-timing-function: cubic-bezier(0.445,0.05,0.55,0.95)} 100% {transform: translate(1892.405029px,500.87001px)}} #ek2omF7utZx208_to {animation: ek2omF7utZx208_to__to 10000ms linear infinite normal forwards}@keyframes ek2omF7utZx208_to__to { 0% {transform: translate(1409.434998px,100.93px);animation-timing-function: cubic-bezier(0.445,0.05,0.55,0.95)} 50% {transform: translate(1409.676998px,142.702297px);animation-timing-function: cubic-bezier(0.445,0.05,0.55,0.95)} 100% {transform: translate(1409.434998px,100.93px)}} #ek2omF7utZx212_to {animation: ek2omF7utZx212_to__to 10000ms linear infinite normal forwards}@keyframes ek2omF7utZx212_to__to { 0% {transform: translate(1190.434998px,187.654999px);animation-timing-function: cubic-bezier(0.445,0.05,0.55,0.95)} 50% {transform: translate(1193.435008px,131.217279px);animation-timing-function: cubic-bezier(0.445,0.05,0.55,0.95)} 100% {transform: translate(1190.434998px,187.654999px)}} #ek2omF7utZx233_to {animation: ek2omF7utZx233_to__to 10000ms linear infinite normal forwards}@keyframes ek2omF7utZx233_to__to { 0% {transform: translate(1190.434998px,55.209999px);animation-timing-function: cubic-bezier(0.445,0.05,0.55,0.95)} 50% {transform: translate(1193.435008px,-1.227722px);animation-timing-function: cubic-bezier(0.445,0.05,0.55,0.95)} 100% {transform: translate(1190.434998px,55.209999px)}} #ek2omF7utZx254_to {animation: ek2omF7utZx254_to__to 10000ms linear infinite normal forwards}@keyframes ek2omF7utZx254_to__to { 0% {transform: translate(1260.49px,245.257px);animation-timing-function: cubic-bezier(0.445,0.05,0.55,0.95)} 50% {transform: translate(1260.732px,268.735176px);animation-timing-function: cubic-bezier(0.445,0.05,0.55,0.95)} 100% {transform: translate(1260.49px,245.257px)}} #ek2omF7utZx257_to {animation: ek2omF7utZx257_to__to 10000ms linear infinite normal forwards}@keyframes ek2omF7utZx257_to__to { 0% {transform: translate(1900.400024px,212.809998px);animation-timing-function: cubic-bezier(0.445,0.05,0.55,0.95)} 50% {transform: translate(1900.642024px,254.582296px);animation-timing-function: cubic-bezier(0.445,0.05,0.55,0.95)} 100% {transform: translate(1900.400024px,212.809998px)}} #ek2omF7utZx258_to {animation: ek2omF7utZx258_to__to 10000ms linear infinite normal forwards}@keyframes ek2omF7utZx258_to__to { 0% {transform: translate(4.41px,89.058439px);animation-timing-function: cubic-bezier(0.445,0.05,0.55,0.95)} 50% {transform: translate(0.651946px,41.772297px);animation-timing-function: cubic-bezier(0.445,0.05,0.55,0.95)} 100% {transform: translate(4.41px,89.058439px)}} #ek2omF7utZx259_to {animation: ek2omF7utZx259_to__to 10000ms linear infinite normal forwards}@keyframes ek2omF7utZx259_to__to { 0% {transform: translate(2057.715149px,368.024994px);animation-timing-function: cubic-bezier(0.445,0.05,0.55,0.95)} 50% {transform: translate(2060.715159px,311.58728px);animation-timing-function: cubic-bezier(0.445,0.05,0.55,0.95)} 100% {transform: translate(2057.715149px,368.024994px)}} #ek2omF7utZx260_to {animation: ek2omF7utZx260_to__to 10000ms linear infinite normal forwards}@keyframes ek2omF7utZx260_to__to { 0% {transform: translate(1098px,526.68px);animation-timing-function: cubic-bezier(0.445,0.05,0.55,0.95)} 50% {transform: translate(1098.242px,568.452299px);animation-timing-function: cubic-bezier(0.445,0.05,0.55,0.95)} 100% {transform: translate(1098px,526.68px)}} #ek2omF7utZx261_to {animation: ek2omF7utZx261_to__to 10000ms linear infinite normal forwards}@keyframes ek2omF7utZx261_to__to { 0% {transform: translate(1473.345032px,596.330017px);animation-timing-function: cubic-bezier(0.445,0.05,0.55,0.95)} 50% {transform: translate(1476.345042px,539.892309px);animation-timing-function: cubic-bezier(0.445,0.05,0.55,0.95)} 100% {transform: translate(1473.345032px,596.330017px)}} #ek2omF7utZx272_to {animation: ek2omF7utZx272_to__to 10000ms linear infinite normal forwards}@keyframes ek2omF7utZx272_to__to { 0% {transform: translate(2026.26947px,693.163696px);animation-timing-function: cubic-bezier(0.445,0.05,0.55,0.95)} 50% {transform: translate(2026.51147px,734.935995px);animation-timing-function: cubic-bezier(0.445,0.05,0.55,0.95)} 100% {transform: translate(2026.26947px,693.163696px)}} #ek2omF7utZx279_to {animation: ek2omF7utZx279_to__to 10000ms linear infinite normal forwards}@keyframes ek2omF7utZx279_to__to { 0% {transform: translate(1911.44px,615.21px);animation-timing-function: cubic-bezier(0.445,0.05,0.55,0.95)} 50% {transform: translate(1911.682px,656.982298px);animation-timing-function: cubic-bezier(0.445,0.05,0.55,0.95)} 100% {transform: translate(1911.44px,615.21px)}} #ek2omF7utZx280_to {animation: ek2omF7utZx280_to__to 10000ms linear infinite normal forwards}@keyframes ek2omF7utZx280_to__to { 0% {transform: translate(2046.460022px,434.570007px);animation-timing-function: cubic-bezier(0.445,0.05,0.55,0.95)} 50% {transform: translate(2049.460032px,378.13229px);animation-timing-function: cubic-bezier(0.445,0.05,0.55,0.95)} 100% {transform: translate(2046.460022px,434.570007px)}} #ek2omF7utZx283_to {animation: ek2omF7utZx283_to__to 10000ms linear infinite normal forwards}@keyframes ek2omF7utZx283_to__to { 0% {transform: translate(1314.8px,548.2px);animation-timing-function: cubic-bezier(0.445,0.05,0.55,0.95)} 50% {transform: translate(1317.80001px,491.762288px);animation-timing-function: cubic-bezier(0.445,0.05,0.55,0.95)} 100% {transform: translate(1314.8px,548.2px)}} #ek2omF7utZx284_to {animation: ek2omF7utZx284_to__to 10000ms linear infinite normal forwards}@keyframes ek2omF7utZx284_to__to { 0% {transform: translate(1990.81px,87.84px);animation-timing-function: cubic-bezier(0.445,0.05,0.55,0.95)} 50% {transform: translate(1991.052px,129.612297px);animation-timing-function: cubic-bezier(0.445,0.05,0.55,0.95)} 100% {transform: translate(1990.81px,87.84px)}} #ek2omF7utZx285_to {animation: ek2omF7utZx285_to__to 10000ms linear infinite normal forwards}@keyframes ek2omF7utZx285_to__to { 0% {transform: translate(1650.87px,696.388px);animation-timing-function: cubic-bezier(0.445,0.05,0.55,0.95)} 50% {transform: translate(1651.112px,738.160299px);animation-timing-function: cubic-bezier(0.445,0.05,0.55,0.95)} 100% {transform: translate(1650.87px,696.388px)}}
]]></style>
<g style="isolation:isolate" transform="translate(-138.242-88.0623)"><g><g><g id="ek2omF7utZx5_to" transform="translate(577.519958,407.399994)"><path d="M551.74,442.54v-70.17c0-1.45.49-2.68,1.48-3.69s2.19-1.51,3.6-1.51s2.61.49,3.6,1.48s1.48,2.19,1.48,3.61v24.06l32.57-27.81c1.13-.93,2.4-1.37,3.81-1.33c1.41,0,2.6.52,3.57,1.55.97,1.04,1.45,2.23,1.45,3.58-.02,1.39-.58,2.56-1.67,3.48l-36.9,31.37l36.95,31.92c1.01.85,1.51,1.94,1.5,3.27c0,1.34-.49,2.55-1.48,3.64s-2.21,1.64-3.66,1.64c-1.37,0-2.6-.46-3.69-1.39L561.9,418.3v24.25c0,1.41-.49,2.61-1.48,3.6s-2.19,1.48-3.6,1.48-2.56-.49-3.57-1.48-1.51-2.19-1.51-3.6Z" transform="translate(-577.519958,-407.399994)" fill="#225fb2"/></g><g id="ek2omF7utZx6_to" transform="translate(652.285065,418.424927)"><path d="M641.92,410.93h19.95c1.09,0,2.67.24,4.73.72l-.12-7.2c0-1.41-.5-2.61-1.49-3.6s-2.19-1.48-3.61-1.48h-19.35c-1.38,0-2.57-.5-3.58-1.51s-1.52-2.2-1.52-3.57.49-2.61,1.49-3.6c.99-.99,2.19-1.48,3.61-1.48h19.34c4.2,0,7.79,1.47,10.76,4.42s4.52,6.56,4.64,10.84l1.27,38.08c0,1.41-.51,2.61-1.51,3.6-1.01.99-2.2,1.48-3.57,1.48-1.45,0-2.69-.49-3.69-1.48-1.01-.99-1.51-2.19-1.51-3.6l-8.61,5.09h-17.22c-4.29,0-7.92-1.49-10.91-4.48s-4.49-6.62-4.49-10.9v-5.93c0-4.24,1.51-7.86,4.52-10.87s6.64-4.51,10.88-4.51Zm25.44,19.8l-.3-4.3c-.04-1.45-.55-2.66-1.52-3.63s-2.16-1.45-3.58-1.45h-20.06c-1.41,0-2.62.49-3.61,1.48s-1.48,2.19-1.48,3.6v5.69c0,1.37.5,2.56,1.51,3.57s2.2,1.51,3.58,1.51h14.36l11.09-6.48Z" transform="translate(-652.285065,-418.424927)" fill="#225fb2"/></g><g id="ek2omF7utZx7_to" transform="translate(727.274994,418.389999)"><path d="M715.89,389.19h23.31c3.63,0,6.84,1.08,9.63,3.24s4.18,4.27,4.18,6.33c0,1.45-.51,2.64-1.54,3.57s-2.17,1.39-3.42,1.39c-1.61,0-3.09-.73-4.42-2.18s-2.72-2.18-4.18-2.18h-23.01c-2.26,0-3.39.94-3.39,2.82c0,1.32.75,2.32,2.26,3l27.04,12.04c2.74,1.21,5,3.16,6.75,5.84s2.63,5.66,2.63,8.93c0,4.36-1.54,8.05-4.63,11.08s-6.59,4.54-10.5,4.54h-20.59c-3.55,0-6.85-1.07-9.9-3.21s-4.57-4.22-4.57-6.24c0-1.33.49-2.51,1.48-3.54s2.27-1.54,3.84-1.54c1.29,0,2.67.73,4.15,2.18c1.47,1.45,3.6,2.18,6.39,2.18h18.95c1.49,0,2.74-.58,3.75-1.73s1.51-2.47,1.51-3.97c0-2.3-1.13-3.96-3.39-4.96l-27.31-12.29c-2.62-1.17-4.64-2.87-6.05-5.09s-2.12-4.48-2.12-6.78c0-3.63,1.26-6.78,3.78-9.45c2.52-2.66,5.64-4,9.35-4Z" transform="translate(-727.274994,-418.389999)" fill="#225fb2"/></g><g id="ek2omF7utZx8_to" transform="translate(802.175079,428.11998)"><path d="M786.85,441.81v22.52c0,1.45-.49,2.68-1.48,3.69s-2.19,1.51-3.6,1.51-2.63-.51-3.66-1.51c-1.03-1.01-1.54-2.24-1.54-3.69v-72.54c0-1.37.5-2.56,1.51-3.57s2.24-1.51,3.69-1.51c1.37,0,2.56.5,3.57,1.51s1.51,2.2,1.51,3.57v3.27c4.92-5.49,9.79-8.23,14.59-8.23h2.36c3.59,0,6.9,1.33,9.93,4l8.48,7.33c3.71,3.23,5.57,7.33,5.57,12.29v15.86c0,5-2,9.22-5.99,12.65l-8.29,7.14c-2.75,2.5-6.22,3.75-10.41,3.75h-2.24c-3.96,0-7.31-1.37-10.05-4.12l-3.94-3.94Zm14.35-2.24h2.6c1.25,0,2.58-.63,4-1.88l7.93-6.96c1.33-1.05,2-2.48,2-4.3v-16.41c0-1.61-.75-3.05-2.24-4.3l-8.54-7.33c-.97-.85-2.02-1.27-3.15-1.27h-2.97c-1.13,0-2.6.93-4.42,2.79l-7.57,7.51c-1.33,1.33-2,2.83-2,4.48v13.02c0,1.57.75,3.11,2.24,4.6l7.33,7.33c1.82,1.82,3.41,2.72,4.78,2.72Z" transform="translate(-802.175079,-428.11998)" fill="#225fb2"/></g><g id="ek2omF7utZx9_to" transform="translate(877.019928,418.395081)"><path d="M902.67,408.33v12.29c0,1.37-.51,2.56-1.51,3.57-1.01,1.01-2.2,1.51-3.57,1.51h-35.96v2.97c0,1.74.75,3.21,2.24,4.42l2.97,2.48c1.61,1.25,3.15,1.88,4.6,1.88h26.16c1.37,0,2.56.49,3.57,1.48s1.51,2.19,1.51,3.6-.51,2.56-1.54,3.57-2.21,1.51-3.54,1.51h-26.82c-1.78,0-3.64-.37-5.6-1.12s-3.4-1.52-4.33-2.33l-4.54-4c-1.41-1.13-2.59-2.7-3.54-4.72s-1.42-3.88-1.42-5.57v-23.31c0-1.33.51-3.13,1.54-5.39s2.33-4.02,3.91-5.27l4.24-3.33c2.79-2.26,5.87-3.39,9.26-3.39h14.29c3.59,0,6.98,1.49,10.17,4.48l3.81,3.63c2.74,2.46,4.12,6.14,4.12,11.02Zm-40.93-.79v7.87h30.88v-7.08c0-1.9-.59-3.35-1.76-4.36l-2.97-2.6c-1.53-1.25-2.91-1.88-4.12-1.88h-12.78c-1.57,0-3.01.54-4.3,1.63l-2.97,2.48c-1.33,1.01-2,2.32-2,3.94Z" transform="translate(-877.019928,-418.395081)" fill="#225fb2"/></g><g id="ek2omF7utZx10_to" transform="translate(951.954926,418.349991)"><path d="M926.35,442.54v-48.26c0-1.41.49-2.63,1.48-3.66s2.19-1.54,3.6-1.54s2.61.5,3.6,1.51s1.48,2.24,1.48,3.69v6.36l8.29-7.08c3.43-2.91,6.78-4.36,10.05-4.36h7.45c4.2,0,7.79,1.49,10.78,4.48s4.48,6.58,4.48,10.78v2.72c0,1.45-.49,2.68-1.48,3.69s-2.19,1.51-3.6,1.51-2.61-.49-3.6-1.48-1.48-2.19-1.48-3.6v-2.85c0-1.41-.49-2.61-1.48-3.6s-2.19-1.48-3.6-1.48h-6.6c-1.41,0-2.99.75-4.72,2.24l-14.47,12.53v28.4c0,1.41-.51,2.61-1.51,3.6-1.01.99-2.2,1.48-3.57,1.48s-2.61-.49-3.6-1.48-1.48-2.19-1.48-3.6Z" transform="translate(-951.954926,-418.349991)" fill="#225fb2"/></g><g id="ek2omF7utZx11_to" transform="translate(1026.785095,405.089966)"><path d="M1042.29,447.5h-31c-1.41,0-2.61-.49-3.6-1.48s-1.48-2.19-1.48-3.6.49-2.56,1.48-3.57s2.19-1.51,3.6-1.51h10.41v-37.96h-10.29c-1.41,0-2.61-.5-3.6-1.51s-1.48-2.2-1.48-3.57.49-2.63,1.48-3.66s2.19-1.54,3.6-1.54h15.5c1.41,0,2.61.51,3.6,1.54s1.48,2.25,1.48,3.66v43.05h10.17c1.41,0,2.63.49,3.66,1.48s1.54,2.19,1.54,3.6-.51,2.61-1.51,3.6c-1.01.99-2.2,1.48-3.57,1.48Zm-20.71-84.83h5.33c1.41,0,2.61.49,3.6,1.48s1.48,2.19,1.48,3.6v4.36c0,1.41-.5,2.63-1.48,3.66s-2.19,1.54-3.6,1.54h-5.45c-1.45,0-2.68-.52-3.66-1.57-.99-1.05-1.46-2.22-1.42-3.51l.12-4.48c0-1.41.49-2.61,1.48-3.6s2.19-1.48,3.6-1.48Z" transform="translate(-1026.785095,-405.089966)" fill="#225fb2"/></g><g id="ek2omF7utZx12_to" transform="translate(1176.715027,407.39003)"><path d="M1151.04,442.54v-75.38h36.09c4.16,0,7.74,1.51,10.75,4.54s4.51,6.64,4.51,10.84v19.07c0,4.2-1.49,7.79-4.48,10.78s-6.58,4.48-10.78,4.48h-25.79v25.67c0,1.41-.5,2.61-1.48,3.6-.99.99-2.19,1.48-3.6,1.48s-2.68-.49-3.69-1.48-1.51-2.19-1.51-3.6Zm10.29-35.84h25.79c1.37,0,2.56-.49,3.57-1.48s1.51-2.19,1.51-3.6v-19.07c0-1.41-.5-2.61-1.51-3.6s-2.2-1.48-3.57-1.48h-25.79v29.24Z" transform="translate(-1176.715027,-407.39003)" fill="#225fb2"/></g><g id="ek2omF7utZx13_to" transform="translate(1251.485046,418.283798)"><path d="M1277.16,407.54v21.49c0,4.56-2.15,8.78-6.45,12.65s-8.73,5.81-13.29,5.81h-11.93c-4.64,0-9.08-1.97-13.32-5.9s-6.36-8.12-6.36-12.56v-21.49c0-4.44,2.07-8.63,6.21-12.56c4.14-3.94,8.63-5.9,13.47-5.9h11.93c4.56-.08,8.99,1.82,13.29,5.69s6.45,8.13,6.45,12.78Zm-41.05.42v20.59c0,1.86.67,3.33,2,4.42l3.81,3.27c.85.73,2.04,1.09,3.57,1.09h11.81c1.74,0,3.31-.63,4.72-1.88l3.09-2.72c1.25-.97,1.88-2.32,1.88-4.06v-20.59c0-2.02-.63-3.51-1.88-4.48l-3.57-2.85c-1.21-1.01-2.62-1.51-4.24-1.51h-10.54c-2.3,0-4.08.54-5.33,1.63l-3.45,2.97c-1.25,1.05-1.88,2.42-1.88,4.12Z" transform="translate(-1251.485046,-418.283798)" fill="#225fb2"/></g><g id="ek2omF7utZx14_to" transform="translate(1326.316162,407.445007)"><path d="M1300.71,442.54v-70.3c0-1.37.49-2.54,1.48-3.51s2.19-1.45,3.6-1.45s2.61.49,3.6,1.48s1.48,2.19,1.48,3.6v25.67l8.17-5.33c3.71-2.34,7.02-3.51,9.93-3.51h6.3c4.16,0,7.73,1.48,10.72,4.45s4.54,6.57,4.66,10.81l1.27,38.08c.04,1.41-.44,2.61-1.45,3.6s-2.22,1.48-3.63,1.48-2.6-.51-3.57-1.54-1.47-2.21-1.51-3.54l-1.27-38.21c-.04-1.37-.57-2.56-1.57-3.57-1.01-1.01-2.22-1.51-3.63-1.51h-5.69c-1.29,0-2.71.5-4.24,1.51l-14.47,9.45v32.33c0,1.41-.5,2.61-1.48,3.6-.99.99-2.19,1.48-3.6,1.48s-2.61-.49-3.6-1.48-1.48-2.19-1.48-3.6Z" transform="translate(-1326.316162,-407.445007)" fill="#225fb2"/></g><g id="ek2omF7utZx15_to" transform="translate(1401.205078,409.634964)"><path d="M1411.45,447.62h-10.17c-4.2,0-7.81-1.49-10.84-4.48s-4.54-6.58-4.54-10.78v-33h-5.21c-1.41,0-2.61-.48-3.6-1.45s-1.48-2.18-1.48-3.63.49-2.61,1.48-3.6s2.19-1.48,3.6-1.48h5.33v-12.47c0-1.41.49-2.61,1.48-3.6s2.19-1.48,3.6-1.48c1.33,0,2.51.51,3.54,1.51c1.03,1.01,1.54,2.2,1.54,3.57v12.47h20.46c1.37,0,2.56.5,3.57,1.51s1.51,2.2,1.51,3.57-.5,2.61-1.51,3.6-2.2,1.48-3.57,1.48h-20.59v33c0,1.37.51,2.56,1.54,3.57s2.25,1.51,3.66,1.51h9.93c2.7,0,4.5-1.46,5.39-4.39s2.6-4.39,5.15-4.39c1.49,0,2.71.49,3.66,1.48s1.42,2.23,1.42,3.72c0,3.07-1.44,6.12-4.33,9.17s-6.57,4.57-11.05,4.57Z" transform="translate(-1401.205078,-409.634964)" fill="#225fb2"/></g><g id="ek2omF7utZx16_to" transform="translate(1476.1651,405.089966)"><path d="M1491.67,447.5h-31c-1.41,0-2.61-.49-3.6-1.48s-1.48-2.19-1.48-3.6.49-2.56,1.48-3.57s2.19-1.51,3.6-1.51h10.41v-37.96h-10.29c-1.41,0-2.61-.5-3.6-1.51s-1.48-2.2-1.48-3.57.49-2.63,1.48-3.66s2.19-1.54,3.6-1.54h15.5c1.41,0,2.61.51,3.6,1.54s1.48,2.25,1.48,3.66v43.05h10.17c1.41,0,2.63.49,3.66,1.48s1.54,2.19,1.54,3.6-.5,2.61-1.51,3.6-2.2,1.48-3.57,1.48Zm-20.71-84.83h5.33c1.41,0,2.61.49,3.6,1.48s1.48,2.19,1.48,3.6v4.36c0,1.41-.5,2.63-1.48,3.66-.99,1.03-2.19,1.54-3.6,1.54h-5.45c-1.45,0-2.67-.52-3.66-1.57s-1.46-2.22-1.42-3.51l.12-4.48c0-1.41.49-2.61,1.48-3.6s2.19-1.48,3.6-1.48Z" transform="translate(-1476.1651,-405.089966)" fill="#225fb2"/></g><g id="ek2omF7utZx17_to" transform="translate(1551.166199,418.335007)"><path d="M1549.58,401l-13.89,9.02v32.51c0,1.37-.5,2.56-1.51,3.57s-2.2,1.51-3.57,1.51-2.56-.5-3.57-1.51-1.51-2.2-1.51-3.57v-48.26c0-1.41.49-2.63,1.48-3.66s2.19-1.54,3.6-1.54s2.56.51,3.57,1.54s1.51,2.25,1.51,3.66v3.39l9.28-5.63c3.11-1.98,6.63-2.97,10.55-2.97h4.73c4.04,0,7.54,1.43,10.49,4.3s4.51,6.4,4.67,10.6l1.39,38.57c.04,1.37-.44,2.56-1.45,3.57s-2.22,1.51-3.63,1.51c-1.33,0-2.5-.45-3.51-1.36s-1.53-2.15-1.57-3.72l-1.51-37.96c-.12-3.55-1.98-5.33-5.58-5.33h-4.97c-1.54,0-3.2.58-4.98,1.76Z" transform="translate(-1551.166199,-418.335007)" fill="#225fb2"/></g><g id="ek2omF7utZx18_to" transform="translate(1625.990051,418.395081)"><path d="M1651.64,408.33v12.29c0,1.37-.5,2.56-1.51,3.57s-2.2,1.51-3.57,1.51h-35.96v2.97c0,1.74.75,3.21,2.24,4.42l2.97,2.48c1.61,1.25,3.15,1.88,4.6,1.88h26.16c1.37,0,2.56.49,3.57,1.48s1.51,2.19,1.51,3.6-.51,2.56-1.54,3.57-2.21,1.51-3.54,1.51h-26.82c-1.78,0-3.64-.37-5.6-1.12s-3.4-1.52-4.33-2.33l-4.54-4c-1.41-1.13-2.59-2.7-3.54-4.72s-1.42-3.88-1.42-5.57v-23.31c0-1.33.51-3.13,1.54-5.39s2.33-4.02,3.91-5.27l4.24-3.33c2.79-2.26,5.87-3.39,9.26-3.39h14.29c3.59,0,6.98,1.49,10.17,4.48l3.81,3.63c2.74,2.46,4.12,6.14,4.12,11.02Zm-40.93-.79v7.87h30.88v-7.08c0-1.9-.59-3.35-1.76-4.36l-2.97-2.6c-1.53-1.25-2.91-1.88-4.12-1.88h-12.78c-1.57,0-3.01.54-4.3,1.63l-2.97,2.48c-1.33,1.01-2,2.32-2,3.94Z" transform="translate(-1625.990051,-418.395081)" fill="#225fb2"/></g><g id="ek2omF7utZx19_to" transform="translate(1700.966248,418.335007)"><path d="M1699.38,401l-13.89,9.02v32.51c0,1.37-.5,2.56-1.51,3.57s-2.2,1.51-3.57,1.51-2.56-.5-3.57-1.51-1.51-2.2-1.51-3.57v-48.26c0-1.41.49-2.63,1.48-3.66s2.19-1.54,3.6-1.54s2.56.51,3.57,1.54s1.51,2.25,1.51,3.66v3.39l9.28-5.63c3.11-1.98,6.63-2.97,10.55-2.97h4.73c4.04,0,7.54,1.43,10.49,4.3s4.51,6.4,4.67,10.6l1.39,38.57c.04,1.37-.44,2.56-1.45,3.57s-2.22,1.51-3.63,1.51c-1.33,0-2.5-.45-3.51-1.36s-1.53-2.15-1.57-3.72l-1.51-37.96c-.12-3.55-1.98-5.33-5.58-5.33h-4.97c-1.54,0-3.2.58-4.98,1.76Z" transform="translate(-1700.966248,-418.335007)" fill="#225fb2"/></g></g><g><g id="ek2omF7utZx21_to" transform="translate(709.008775,656.26004)"><g transform="translate(-708.25,-656.26004)"><g><g><path d="M720.73,584.33c-1.37,0-2.48-1.11-2.48-2.48s1.11-2.48,2.48-2.48s2.48,1.11,2.48,2.48-1.11,2.48-2.48,2.48Z" fill="#225fb2"/><path d="M720.73,605.68c-1.37,0-2.48-1.11-2.48-2.48s1.11-2.48,2.48-2.48s2.48,1.11,2.48,2.48-1.11,2.48-2.48,2.48Z" fill="#225fb2"/><path d="M720.73,627.02c-1.37,0-2.48-1.11-2.48-2.48s1.11-2.48,2.48-2.48s2.48,1.11,2.48,2.48-1.11,2.48-2.48,2.48Z" fill="#225fb2"/><path d="M720.73,648.36c-1.37,0-2.48-1.11-2.48-2.48s1.11-2.48,2.48-2.48s2.48,1.11,2.48,2.48-1.11,2.48-2.48,2.48Z" fill="#225fb2"/></g><g><path d="M720.73,669.12c-1.37,0-2.48-1.11-2.48-2.48s1.11-2.48,2.48-2.48s2.48,1.11,2.48,2.48-1.11,2.48-2.48,2.48Z" fill="#225fb2"/><path d="M720.73,690.46c-1.37,0-2.48-1.11-2.48-2.48s1.11-2.48,2.48-2.48s2.48,1.11,2.48,2.48-1.11,2.48-2.48,2.48Z" fill="#225fb2"/><path d="M720.73,711.81c-1.37,0-2.48-1.11-2.48-2.48s1.11-2.48,2.48-2.48s2.48,1.11,2.48,2.48-1.11,2.48-2.48,2.48Z" fill="#225fb2"/><path d="M720.73,733.15c-1.37,0-2.48-1.11-2.48-2.48s1.11-2.48,2.48-2.48s2.48,1.11,2.48,2.48-1.11,2.48-2.48,2.48Z" fill="#225fb2"/></g></g><g><g><path d="M695.77,584.33c-1.37,0-2.48-1.11-2.48-2.48s1.11-2.48,2.48-2.48s2.48,1.11,2.48,2.48-1.11,2.48-2.48,2.48Z" fill="#225fb2"/><path d="M695.77,605.68c-1.37,0-2.48-1.11-2.48-2.48s1.11-2.48,2.48-2.48s2.48,1.11,2.48,2.48-1.11,2.48-2.48,2.48Z" fill="#225fb2"/><path d="M695.77,627.02c-1.37,0-2.48-1.11-2.48-2.48s1.11-2.48,2.48-2.48s2.48,1.11,2.48,2.48-1.11,2.48-2.48,2.48Z" fill="#225fb2"/><path d="M695.77,648.36c-1.37,0-2.48-1.11-2.48-2.48s1.11-2.48,2.48-2.48s2.48,1.11,2.48,2.48-1.11,2.48-2.48,2.48Z" fill="#225fb2"/></g><g><path d="M695.77,669.12c-1.37,0-2.48-1.11-2.48-2.48s1.11-2.48,2.48-2.48s2.48,1.11,2.48,2.48-1.11,2.48-2.48,2.48Z" fill="#225fb2"/><path d="M695.77,690.46c-1.37,0-2.48-1.11-2.48-2.48s1.11-2.48,2.48-2.48s2.48,1.11,2.48,2.48-1.11,2.48-2.48,2.48Z" fill="#225fb2"/><path d="M695.77,711.81c-1.37,0-2.48-1.11-2.48-2.48s1.11-2.48,2.48-2.48s2.48,1.11,2.48,2.48-1.11,2.48-2.48,2.48Z" fill="#225fb2"/><path d="M695.77,733.15c-1.37,0-2.48-1.11-2.48-2.48s1.11-2.48,2.48-2.48s2.48,1.11,2.48,2.48-1.11,2.48-2.48,2.48Z" fill="#225fb2"/></g></g></g></g><g id="ek2omF7utZx44_to" transform="translate(198.01378,498.795013)"><g transform="translate(-197.255005,-498.795013)"><rect width="92.96" height="92.96" rx="0" ry="0" transform="translate(132.81 434.56)" fill="none" stroke="#225fb2" stroke-width="1.3" stroke-miterlimit="10"/><polyline points="132.81,527.52 167.9,562.61 261.7,562.61 261.7,469.27 225.77,434.56" fill="none" stroke="#225fb2" stroke-width="1.3" stroke-miterlimit="10"/><line x1="225.77" y1="527.52" x2="261.28" y2="563.03" fill="none" stroke="#225fb2" stroke-width="1.3" stroke-miterlimit="10"/></g></g><g id="ek2omF7utZx48_to" transform="translate(604.833787,112.905003)"><g transform="translate(-604.075012,-112.905003)"><g style="mix-blend-mode:multiply"><g><g><circle r="4.05" transform="translate(500.44 148.99)" fill="#225fb2"/><circle r="4.05" transform="translate(535.28 148.99)" fill="#225fb2"/><path d="M574.17,148.99c0,2.24-1.81,4.05-4.05,4.05s-4.05-1.81-4.05-4.05s1.81-4.05,4.05-4.05s4.05,1.81,4.05,4.05Z" fill="#225fb2"/><circle r="4.05" transform="translate(604.95 148.99)" fill="#225fb2"/></g><g><circle r="4.05" transform="translate(500.44 182.03)" fill="#225fb2"/><circle r="4.05" transform="translate(535.28 182.03)" fill="#225fb2"/><path d="M574.17,182.03c0,2.24-1.81,4.05-4.05,4.05s-4.05-1.81-4.05-4.05s1.81-4.05,4.05-4.05s4.05,1.81,4.05,4.05Z" fill="#225fb2"/><circle r="4.05" transform="translate(604.95 182.03)" fill="#225fb2"/></g></g></g><g><rect width="83.4" height="83.4" rx="0" ry="0" transform="matrix(-1 0 0-1 711.76 123.68)" fill="none" stroke="#225fb2" stroke-width="1.3" stroke-miterlimit="10"/><polyline points="711.75,123.68 680.27,155.16 596.12,155.16 596.12,71.42 627.8,39.73" fill="none" stroke="#225fb2" stroke-width="1.3" stroke-miterlimit="10"/></g></g></g><g id="ek2omF7utZx64_to" transform="translate(799.703782,541.26001)"><g transform="translate(-798.945007,-541.26001)"><polyline points="738.93,526.32 750.93,538.32 762.93,526.32 774.93,538.32 786.93,526.32 798.93,538.32 810.93,526.32 822.94,538.32 834.94,526.32 846.95,538.32 858.96,526.32" fill="none" stroke="#225fb2" stroke-width="2" stroke-miterlimit="10"/><polyline points="738.93,544.2 750.93,556.2 762.93,544.2 774.93,556.2 786.93,544.2 798.93,556.2 810.93,544.2 822.94,556.2 834.94,544.2 846.95,556.2 858.96,544.2" fill="none" stroke="#225fb2" stroke-width="2" stroke-miterlimit="10"/></g></g><g id="ek2omF7utZx67_to" transform="translate(346.863771,106.575001)"><g transform="translate(-346.104996,-106.575001)"><polyline points="279.85,90.12 293.1,102.12 306.35,90.12 319.6,102.12 332.85,90.12 346.09,102.12 359.34,90.12 372.6,102.12 385.85,90.12 399.1,102.12 412.36,90.12" fill="none" stroke="#225fb2" stroke-width="2" stroke-miterlimit="10"/><polyline points="279.85,111.03 293.1,123.03 306.35,111.03 319.6,123.03 332.85,111.03 346.09,123.03 359.34,111.03 372.6,123.03 385.85,111.03 399.1,123.03 412.36,111.03" fill="none" stroke="#225fb2" stroke-width="2" stroke-miterlimit="10"/></g></g><g><g id="ek2omF7utZx71_to" transform="translate(141.643773,209.730003)"><g transform="translate(-140.884998,-209.730003)"><g><path d="M91.24,158.69c0,2.31-1.87,4.17-4.17,4.17s-4.17-1.87-4.17-4.17s1.87-4.17,4.17-4.17s4.17,1.87,4.17,4.17Z" fill="#225fb2"/><path d="M127.12,158.69c0,2.31-1.87,4.17-4.17,4.17s-4.17-1.87-4.17-4.17s1.87-4.17,4.17-4.17s4.17,1.87,4.17,4.17Z" fill="#225fb2"/><path d="M163,158.69c0,2.31-1.87,4.17-4.17,4.17s-4.17-1.87-4.17-4.17s1.87-4.17,4.17-4.17s4.17,1.87,4.17,4.17Z" fill="#225fb2"/><path d="M198.87,158.69c0,2.31-1.87,4.17-4.17,4.17s-4.17-1.87-4.17-4.17s1.87-4.17,4.17-4.17s4.17,1.87,4.17,4.17Z" fill="#225fb2"/></g><g><path d="M91.24,192.71c0,2.31-1.87,4.17-4.17,4.17s-4.17-1.87-4.17-4.17s1.87-4.17,4.17-4.17s4.17,1.87,4.17,4.17Z" fill="#225fb2"/><path d="M127.12,192.71c0,2.31-1.87,4.17-4.17,4.17s-4.17-1.87-4.17-4.17s1.87-4.17,4.17-4.17s4.17,1.87,4.17,4.17Z" fill="#225fb2"/><path d="M163,192.71c0,2.31-1.87,4.17-4.17,4.17s-4.17-1.87-4.17-4.17s1.87-4.17,4.17-4.17s4.17,1.87,4.17,4.17Z" fill="#225fb2"/><path d="M198.87,192.71c0,2.31-1.87,4.17-4.17,4.17s-4.17-1.87-4.17-4.17s1.87-4.17,4.17-4.17s4.17,1.87,4.17,4.17Z" fill="#225fb2"/></g><g><path d="M91.24,226.74c0,2.31-1.87,4.17-4.17,4.17s-4.17-1.87-4.17-4.17s1.87-4.17,4.17-4.17s4.17,1.87,4.17,4.17Z" fill="#225fb2"/><path d="M127.12,226.74c0,2.31-1.87,4.17-4.17,4.17s-4.17-1.87-4.17-4.17s1.87-4.17,4.17-4.17s4.17,1.87,4.17,4.17Z" fill="#225fb2"/><path d="M163,226.74c0,2.31-1.87,4.17-4.17,4.17s-4.17-1.87-4.17-4.17s1.87-4.17,4.17-4.17s4.17,1.87,4.17,4.17Z" fill="#225fb2"/><path d="M198.87,226.74c0,2.31-1.87,4.17-4.17,4.17s-4.17-1.87-4.17-4.17s1.87-4.17,4.17-4.17s4.17,1.87,4.17,4.17Z" fill="#225fb2"/></g><g><path d="M91.24,260.77c0,2.31-1.87,4.17-4.17,4.17s-4.17-1.87-4.17-4.17s1.87-4.17,4.17-4.17s4.17,1.87,4.17,4.17Z" fill="#225fb2"/><path d="M127.12,260.77c0,2.31-1.87,4.17-4.17,4.17s-4.17-1.87-4.17-4.17s1.87-4.17,4.17-4.17s4.17,1.87,4.17,4.17Z" fill="#225fb2"/><path d="M163,260.77c0,2.31-1.87,4.17-4.17,4.17s-4.17-1.87-4.17-4.17s1.87-4.17,4.17-4.17s4.17,1.87,4.17,4.17Z" fill="#225fb2"/><path d="M198.87,260.77c0,2.31-1.87,4.17-4.17,4.17s-4.17-1.87-4.17-4.17s1.87-4.17,4.17-4.17s4.17,1.87,4.17,4.17Z" fill="#225fb2"/></g></g></g><g id="ek2omF7utZx92_to" transform="translate(141.643773,77.285002)"><g transform="translate(-140.884998,-77.285002)"><g><path d="M91.24,26.25c0,2.31-1.87,4.17-4.17,4.17s-4.17-1.87-4.17-4.17s1.87-4.17,4.17-4.17s4.17,1.87,4.17,4.17Z" fill="#225fb2"/><path d="M127.12,26.25c0,2.31-1.87,4.17-4.17,4.17s-4.17-1.87-4.17-4.17s1.87-4.17,4.17-4.17s4.17,1.87,4.17,4.17Z" fill="#225fb2"/><path d="M163,26.25c0,2.31-1.87,4.17-4.17,4.17s-4.17-1.87-4.17-4.17s1.87-4.17,4.17-4.17s4.17,1.87,4.17,4.17Z" fill="#225fb2"/><path d="M198.87,26.25c0,2.31-1.87,4.17-4.17,4.17s-4.17-1.87-4.17-4.17s1.87-4.17,4.17-4.17s4.17,1.87,4.17,4.17Z" fill="#225fb2"/></g><g><path d="M91.24,60.27c0,2.31-1.87,4.17-4.17,4.17s-4.17-1.87-4.17-4.17s1.87-4.17,4.17-4.17s4.17,1.87,4.17,4.17Z" fill="#225fb2"/><path d="M127.12,60.27c0,2.31-1.87,4.17-4.17,4.17s-4.17-1.87-4.17-4.17s1.87-4.17,4.17-4.17s4.17,1.87,4.17,4.17Z" fill="#225fb2"/><path d="M163,60.27c0,2.31-1.87,4.17-4.17,4.17s-4.17-1.87-4.17-4.17s1.87-4.17,4.17-4.17s4.17,1.87,4.17,4.17Z" fill="#225fb2"/><path d="M198.87,60.27c0,2.31-1.87,4.17-4.17,4.17s-4.17-1.87-4.17-4.17s1.87-4.17,4.17-4.17s4.17,1.87,4.17,4.17Z" fill="#225fb2"/></g><g><path d="M91.24,94.3c0,2.31-1.87,4.17-4.17,4.17s-4.17-1.87-4.17-4.17s1.87-4.17,4.17-4.17s4.17,1.87,4.17,4.17Z" fill="#225fb2"/><path d="M127.12,94.3c0,2.31-1.87,4.17-4.17,4.17s-4.17-1.87-4.17-4.17s1.87-4.17,4.17-4.17s4.17,1.87,4.17,4.17Z" fill="#225fb2"/><path d="M163,94.3c0,2.31-1.87,4.17-4.17,4.17s-4.17-1.87-4.17-4.17s1.87-4.17,4.17-4.17s4.17,1.87,4.17,4.17Z" fill="#225fb2"/><path d="M198.87,94.3c0,2.31-1.87,4.17-4.17,4.17s-4.17-1.87-4.17-4.17s1.87-4.17,4.17-4.17s4.17,1.87,4.17,4.17Z" fill="#225fb2"/></g><g><path d="M91.24,128.32c0,2.31-1.87,4.17-4.17,4.17s-4.17-1.87-4.17-4.17s1.87-4.17,4.17-4.17s4.17,1.87,4.17,4.17Z" fill="#225fb2"/><path d="M127.12,128.32c0,2.31-1.87,4.17-4.17,4.17s-4.17-1.87-4.17-4.17s1.87-4.17,4.17-4.17s4.17,1.87,4.17,4.17Z" fill="#225fb2"/><path d="M163,128.32c0,2.31-1.87,4.17-4.17,4.17s-4.17-1.87-4.17-4.17s1.87-4.17,4.17-4.17s4.17,1.87,4.17,4.17Z" fill="#225fb2"/><path d="M198.87,128.32c0,2.31-1.87,4.17-4.17,4.17s-4.17-1.87-4.17-4.17s1.87-4.17,4.17-4.17s4.17,1.87,4.17,4.17Z" fill="#225fb2"/></g></g></g><g id="ek2omF7utZx113_to" transform="translate(210.941,267.327)"><circle style="mix-blend-mode:multiply" r="65.07" transform="rotate(-45) translate(0,0)" fill="#225fb2"/></g><g id="ek2omF7utZx114_to" transform="translate(920.624,103.391)"><circle style="mix-blend-mode:multiply" r="65.07" transform="rotate(-45) translate(0,0)" fill="#225fb2"/></g></g><circle r="128.48" transform="matrix(.707107-.707107 0.707107 0.707107 389.792 384.986)" fill="none"/><g id="ek2omF7utZx116_to" transform="translate(340.384979,190.904991)"><path d="M357.19,182.04l-8.69,8.69l8.84,8.84-8.29,8.29-8.84-8.84-8.69,8.69-7.89-7.89l8.69-8.69-8.89-8.89l8.29-8.29l8.89,8.89l8.69-8.69l7.89,7.89Z" transform="translate(-340.384979,-190.904991)" fill="#225fb2"/></g><rect style="mix-blend-mode:multiply" width="153.58" height="206.31" rx="0" ry="0" transform="translate(0 532.33)" fill="#225fb2"/><g><g id="ek2omF7utZx119_to" transform="translate(444.609985,601.97998)"><path d="M483.09,601.98c0,21.25-17.23,38.48-38.48,38.48s-38.48-17.23-38.48-38.48s17.23-38.48,38.48-38.48" transform="translate(-444.609985,-601.97998)" fill="none" stroke="#225fb2" stroke-width="2.5" stroke-miterlimit="10"/></g><g id="ek2omF7utZx120_to" transform="translate(393.264999,614.980011)"><g transform="translate(-393.264999,-614.980011)"><line x1="336.94" y1="624.02" x2="355.02" y2="605.94" fill="none" stroke="#225fb2" stroke-width="1.5" stroke-miterlimit="10"/><line x1="352.7" y1="624.02" x2="370.78" y2="605.94" fill="none" stroke="#225fb2" stroke-width="1.5" stroke-miterlimit="10"/><line x1="368.46" y1="624.02" x2="386.54" y2="605.94" fill="none" stroke="#225fb2" stroke-width="1.5" stroke-miterlimit="10"/><line x1="384.22" y1="624.02" x2="402.3" y2="605.94" fill="none" stroke="#225fb2" stroke-width="1.5" stroke-miterlimit="10"/><line x1="399.99" y1="624.02" x2="418.07" y2="605.94" fill="none" stroke="#225fb2" stroke-width="1.5" stroke-miterlimit="10"/><line x1="415.75" y1="624.02" x2="433.83" y2="605.94" fill="none" stroke="#225fb2" stroke-width="1.5" stroke-miterlimit="10"/><line x1="431.51" y1="624.02" x2="449.59" y2="605.94" fill="none" stroke="#225fb2" stroke-width="1.5" stroke-miterlimit="10"/></g></g></g><g id="ek2omF7utZx128_to" transform="translate(67.528775,367.93)"><rect width="78.28" height="11.49" rx="0" ry="0" transform="translate(0,0)" fill="#225fb2"/></g><g id="ek2omF7utZx129_to" transform="translate(157.698775,367.93)"><rect width="12.57" height="11.49" rx="0" ry="0" transform="translate(0,0)" fill="#225fb2"/></g><g id="ek2omF7utZx130_to" transform="translate(583.130005,547.330017)"><g transform="translate(-583.130005,-547.330017)"><rect style="mix-blend-mode:multiply" width="90.5" height="12.14" rx="0" ry="0" transform="translate(559.7 541.26)" fill="#225fb2"/><rect style="mix-blend-mode:multiply" width="25.52" height="12.14" rx="0" ry="0" transform="translate(516.06 541.26)" fill="#225fb2"/></g></g><g id="ek2omF7utZx133_to" transform="translate(587.551,702.061)"><circle style="mix-blend-mode:multiply" r="52.22" transform="rotate(-19.609999) translate(0,0)" fill="none" stroke="#225fb2" stroke-width="19" stroke-miterlimit="10"/></g><g id="ek2omF7utZx134_to" transform="translate(1097.390015,144.935005)"><g transform="translate(-1097.390015,-144.935005)"><g><g><path d="M1109.87,73.01c-1.37,0-2.48-1.11-2.48-2.48s1.11-2.48,2.48-2.48s2.48,1.11,2.48,2.48-1.11,2.48-2.48,2.48Z" fill="#225fb2"/><path d="M1109.87,94.35c-1.37,0-2.48-1.11-2.48-2.48s1.11-2.48,2.48-2.48s2.48,1.11,2.48,2.48-1.11,2.48-2.48,2.48Z" fill="#225fb2"/><path d="M1109.87,115.69c-1.37,0-2.48-1.11-2.48-2.48s1.11-2.48,2.48-2.48s2.48,1.11,2.48,2.48-1.11,2.48-2.48,2.48Z" fill="#225fb2"/><path d="M1109.87,137.04c-1.37,0-2.48-1.11-2.48-2.48s1.11-2.48,2.48-2.48s2.48,1.11,2.48,2.48-1.11,2.48-2.48,2.48Z" fill="#225fb2"/></g><g><path d="M1109.87,157.8c-1.37,0-2.48-1.11-2.48-2.48s1.11-2.48,2.48-2.48s2.48,1.11,2.48,2.48-1.11,2.48-2.48,2.48Z" fill="#225fb2"/><path d="M1109.87,179.14c-1.37,0-2.48-1.11-2.48-2.48s1.11-2.48,2.48-2.48s2.48,1.11,2.48,2.48-1.11,2.48-2.48,2.48Z" fill="#225fb2"/><path d="M1109.87,200.48c-1.37,0-2.48-1.11-2.48-2.48s1.11-2.48,2.48-2.48s2.48,1.11,2.48,2.48-1.11,2.48-2.48,2.48Z" fill="#225fb2"/><path d="M1109.87,221.82c-1.37,0-2.48-1.11-2.48-2.48s1.11-2.48,2.48-2.48s2.48,1.11,2.48,2.48-1.11,2.48-2.48,2.48Z" fill="#225fb2"/></g></g><g><g><path d="M1084.91,73.01c-1.37,0-2.48-1.11-2.48-2.48s1.11-2.48,2.48-2.48s2.48,1.11,2.48,2.48-1.11,2.48-2.48,2.48Z" fill="#225fb2"/><path d="M1084.91,94.35c-1.37,0-2.48-1.11-2.48-2.48s1.11-2.48,2.48-2.48s2.48,1.11,2.48,2.48-1.11,2.48-2.48,2.48Z" fill="#225fb2"/><path d="M1084.91,115.69c-1.37,0-2.48-1.11-2.48-2.48s1.11-2.48,2.48-2.48s2.48,1.11,2.48,2.48-1.11,2.48-2.48,2.48Z" fill="#225fb2"/><path d="M1084.91,137.04c-1.37,0-2.48-1.11-2.48-2.48s1.11-2.48,2.48-2.48s2.48,1.11,2.48,2.48-1.11,2.48-2.48,2.48Z" fill="#225fb2"/></g><g><path d="M1084.91,157.8c-1.37,0-2.48-1.11-2.48-2.48s1.11-2.48,2.48-2.48s2.48,1.11,2.48,2.48-1.11,2.48-2.48,2.48Z" fill="#225fb2"/><path d="M1084.91,179.14c-1.37,0-2.48-1.11-2.48-2.48s1.11-2.48,2.48-2.48s2.48,1.11,2.48,2.48-1.11,2.48-2.48,2.48Z" fill="#225fb2"/><path d="M1084.91,200.48c-1.37,0-2.48-1.11-2.48-2.48s1.11-2.48,2.48-2.48s2.48,1.11,2.48,2.48-1.11,2.48-2.48,2.48Z" fill="#225fb2"/><path d="M1084.91,221.82c-1.37,0-2.48-1.11-2.48-2.48s1.11-2.48,2.48-2.48s2.48,1.11,2.48,2.48-1.11,2.48-2.48,2.48Z" fill="#225fb2"/></g></g></g></g><circle r="128.48" transform="matrix(.707107-.707107 0.707107 0.707107 1002.85 709.326)" fill="none"/><g id="ek2omF7utZx158_to" transform="translate(798.936,256.57)"><circle style="mix-blend-mode:multiply" r="52.22" transform="rotate(-19.609999) translate(0,0)" fill="none" stroke="#225fb2" stroke-width="19" stroke-miterlimit="10"/></g></g><g clip-path="url(#ek2omF7utZx286)"><g><g id="ek2omF7utZx161_to" transform="translate(1771.580017,650.615021)"><g transform="translate(-1771.580017,-650.615021)"><g><g><path d="M1784.06,578.69c-1.37,0-2.48-1.11-2.48-2.48s1.11-2.48,2.48-2.48s2.48,1.11,2.48,2.48-1.11,2.48-2.48,2.48Z" fill="#225fb2"/><path d="M1784.06,600.03c-1.37,0-2.48-1.11-2.48-2.48s1.11-2.48,2.48-2.48s2.48,1.11,2.48,2.48-1.11,2.48-2.48,2.48Z" fill="#225fb2"/><path d="M1784.06,621.37c-1.37,0-2.48-1.11-2.48-2.48s1.11-2.48,2.48-2.48s2.48,1.11,2.48,2.48-1.11,2.48-2.48,2.48Z" fill="#225fb2"/><path d="M1784.06,642.71c-1.37,0-2.48-1.11-2.48-2.48s1.11-2.48,2.48-2.48s2.48,1.11,2.48,2.48-1.11,2.48-2.48,2.48Z" fill="#225fb2"/></g><g><path d="M1784.06,663.47c-1.37,0-2.48-1.11-2.48-2.48s1.11-2.48,2.48-2.48s2.48,1.11,2.48,2.48-1.11,2.48-2.48,2.48Z" fill="#225fb2"/><path d="M1784.06,684.82c-1.37,0-2.48-1.11-2.48-2.48s1.11-2.48,2.48-2.48s2.48,1.11,2.48,2.48-1.11,2.48-2.48,2.48Z" fill="#225fb2"/><path d="M1784.06,706.16c-1.37,0-2.48-1.11-2.48-2.48s1.11-2.48,2.48-2.48s2.48,1.11,2.48,2.48-1.11,2.48-2.48,2.48Z" fill="#225fb2"/><path d="M1784.06,727.5c-1.37,0-2.48-1.11-2.48-2.48s1.11-2.48,2.48-2.48s2.48,1.11,2.48,2.48-1.11,2.48-2.48,2.48Z" fill="#225fb2"/></g></g><g><g><path d="M1759.1,578.69c-1.37,0-2.48-1.11-2.48-2.48s1.11-2.48,2.48-2.48s2.48,1.11,2.48,2.48-1.11,2.48-2.48,2.48Z" fill="#225fb2"/><path d="M1759.1,600.03c-1.37,0-2.48-1.11-2.48-2.48s1.11-2.48,2.48-2.48s2.48,1.11,2.48,2.48-1.11,2.48-2.48,2.48Z" fill="#225fb2"/><path d="M1759.1,621.37c-1.37,0-2.48-1.11-2.48-2.48s1.11-2.48,2.48-2.48s2.48,1.11,2.48,2.48-1.11,2.48-2.48,2.48Z" fill="#225fb2"/><path d="M1759.1,642.71c-1.37,0-2.48-1.11-2.48-2.48s1.11-2.48,2.48-2.48s2.48,1.11,2.48,2.48-1.11,2.48-2.48,2.48Z" fill="#225fb2"/></g><g><path d="M1759.1,663.47c-1.37,0-2.48-1.11-2.48-2.48s1.11-2.48,2.48-2.48s2.48,1.11,2.48,2.48-1.11,2.48-2.48,2.48Z" fill="#225fb2"/><path d="M1759.1,684.82c-1.37,0-2.48-1.11-2.48-2.48s1.11-2.48,2.48-2.48s2.48,1.11,2.48,2.48-1.11,2.48-2.48,2.48Z" fill="#225fb2"/><path d="M1759.1,706.16c-1.37,0-2.48-1.11-2.48-2.48s1.11-2.48,2.48-2.48s2.48,1.11,2.48,2.48-1.11,2.48-2.48,2.48Z" fill="#225fb2"/><path d="M1759.1,727.5c-1.37,0-2.48-1.11-2.48-2.48s1.11-2.48,2.48-2.48s2.48,1.11,2.48,2.48-1.11,2.48-2.48,2.48Z" fill="#225fb2"/></g></g></g></g><g id="ek2omF7utZx184_to" transform="translate(0.409941,-71.33)"><g transform="translate(0,0)"><rect width="92.96" height="92.96" rx="0" ry="0" transform="translate(1365.53 198)" fill="none" stroke="#225fb2" stroke-width="1.3" stroke-miterlimit="10"/><polyline points="1365.53,290.96 1400.62,326.05 1494.43,326.05 1494.43,232.71 1458.5,198" fill="none" stroke="#225fb2" stroke-width="1.3" stroke-miterlimit="10"/><line x1="1458.5" y1="290.96" x2="1494.01" y2="326.47" fill="none" stroke="#225fb2" stroke-width="1.3" stroke-miterlimit="10"/></g></g><g id="ek2omF7utZx188_to" transform="translate(1667.399963,107.255005)"><g transform="translate(-1667.399963,-107.255005)"><g style="mix-blend-mode:multiply"><g><g><circle r="4.05" transform="translate(1563.77 143.34)" fill="#225fb2"/><circle r="4.05" transform="translate(1598.61 143.34)" fill="#225fb2"/><path d="M1637.5,143.34c0,2.24-1.81,4.05-4.05,4.05s-4.05-1.81-4.05-4.05s1.81-4.05,4.05-4.05s4.05,1.81,4.05,4.05Z" fill="#225fb2"/><circle r="4.05" transform="translate(1668.28 143.34)" fill="#225fb2"/></g><g><circle r="4.05" transform="translate(1563.77 176.38)" fill="#225fb2"/><circle r="4.05" transform="translate(1598.61 176.38)" fill="#225fb2"/><path d="M1637.5,176.38c0,2.24-1.81,4.05-4.05,4.05s-4.05-1.81-4.05-4.05s1.81-4.05,4.05-4.05s4.05,1.81,4.05,4.05Z" fill="#225fb2"/><circle r="4.05" transform="translate(1668.28 176.38)" fill="#225fb2"/></g></g></g><g><rect width="83.4" height="83.4" rx="0" ry="0" transform="matrix(-1 0 0-1 1775.08 118.03)" fill="none" stroke="#225fb2" stroke-width="1.3" stroke-miterlimit="10"/><polyline points="1775.08,118.03 1743.6,149.51 1659.45,149.51 1659.45,65.77 1691.13,34.08" fill="none" stroke="#225fb2" stroke-width="1.3" stroke-miterlimit="10"/><line x1="1691.68" y1="118.03" x2="1659.82" y2="149.89" fill="none" stroke="#225fb2" stroke-width="1.3" stroke-miterlimit="10"/></g></g></g><g id="ek2omF7utZx205_to" transform="translate(1892.405029,500.87001)"><g transform="translate(-1892.405029,-500.87001)"><polyline points="1832.39,485.4 1844.39,497.4 1856.39,485.4 1868.39,497.4 1880.4,485.4 1892.39,497.4 1904.39,485.4 1916.4,497.4 1928.4,485.4 1940.41,497.4 1952.42,485.4" fill="none" stroke="#225fb2" stroke-width="2" stroke-miterlimit="10"/><polyline points="1832.39,504.34 1844.39,516.34 1856.39,504.34 1868.39,516.34 1880.4,504.34 1892.39,516.34 1904.39,504.34 1916.4,516.34 1928.4,504.34 1940.41,516.34 1952.42,504.34" fill="none" stroke="#225fb2" stroke-width="2" stroke-miterlimit="10"/></g></g><g id="ek2omF7utZx208_to" transform="translate(1409.434998,100.93)"><g transform="translate(-1409.434998,-100.93)"><polyline points="1343.18,84.48 1356.43,96.48 1369.68,84.48 1382.93,96.48 1396.18,84.48 1409.42,96.48 1422.67,84.48 1435.93,96.48 1449.17,84.48 1462.43,96.48 1475.69,84.48" fill="none" stroke="#225fb2" stroke-width="2" stroke-miterlimit="10"/><polyline points="1343.18,105.38 1356.43,117.38 1369.68,105.38 1382.93,117.38 1396.18,105.38 1409.42,117.38 1422.67,105.38 1435.93,117.38 1449.17,105.38 1462.43,117.38 1475.69,105.38" fill="none" stroke="#225fb2" stroke-width="2" stroke-miterlimit="10"/></g></g><g><g id="ek2omF7utZx212_to" transform="translate(1190.434998,187.654999)"><g transform="translate(-1190.434998,-187.654999)"><g><path d="M1140.79,136.62c0,2.31-1.87,4.17-4.17,4.17s-4.17-1.87-4.17-4.17s1.87-4.17,4.17-4.17s4.17,1.87,4.17,4.17Z" fill="#225fb2"/><path d="M1176.67,136.62c0,2.31-1.87,4.17-4.17,4.17s-4.17-1.87-4.17-4.17s1.87-4.17,4.17-4.17s4.17,1.87,4.17,4.17Z" fill="#225fb2"/><path d="M1212.55,136.62c0,2.31-1.87,4.17-4.17,4.17s-4.17-1.87-4.17-4.17s1.87-4.17,4.17-4.17s4.17,1.87,4.17,4.17Z" fill="#225fb2"/><path d="M1248.42,136.62c0,2.31-1.87,4.17-4.17,4.17s-4.17-1.87-4.17-4.17s1.87-4.17,4.17-4.17s4.17,1.87,4.17,4.17Z" fill="#225fb2"/></g><g><path d="M1140.79,170.64c0,2.31-1.87,4.17-4.17,4.17s-4.17-1.87-4.17-4.17s1.87-4.17,4.17-4.17s4.17,1.87,4.17,4.17Z" fill="#225fb2"/><path d="M1176.67,170.64c0,2.31-1.87,4.17-4.17,4.17s-4.17-1.87-4.17-4.17s1.87-4.17,4.17-4.17s4.17,1.87,4.17,4.17Z" fill="#225fb2"/><path d="M1212.55,170.64c0,2.31-1.87,4.17-4.17,4.17s-4.17-1.87-4.17-4.17s1.87-4.17,4.17-4.17s4.17,1.87,4.17,4.17Z" fill="#225fb2"/><path d="M1248.42,170.64c0,2.31-1.87,4.17-4.17,4.17s-4.17-1.87-4.17-4.17s1.87-4.17,4.17-4.17s4.17,1.87,4.17,4.17Z" fill="#225fb2"/></g><g><path d="M1140.79,204.67c0,2.31-1.87,4.17-4.17,4.17s-4.17-1.87-4.17-4.17s1.87-4.17,4.17-4.17s4.17,1.87,4.17,4.17Z" fill="#225fb2"/><path d="M1176.67,204.67c0,2.31-1.87,4.17-4.17,4.17s-4.17-1.87-4.17-4.17s1.87-4.17,4.17-4.17s4.17,1.87,4.17,4.17Z" fill="#225fb2"/><path d="M1212.55,204.67c0,2.31-1.87,4.17-4.17,4.17s-4.17-1.87-4.17-4.17s1.87-4.17,4.17-4.17s4.17,1.87,4.17,4.17Z" fill="#225fb2"/><path d="M1248.42,204.67c0,2.31-1.87,4.17-4.17,4.17s-4.17-1.87-4.17-4.17s1.87-4.17,4.17-4.17s4.17,1.87,4.17,4.17Z" fill="#225fb2"/></g><g><path d="M1140.79,238.69c0,2.31-1.87,4.17-4.17,4.17s-4.17-1.87-4.17-4.17s1.87-4.17,4.17-4.17s4.17,1.87,4.17,4.17Z" fill="#225fb2"/><path d="M1176.67,238.69c0,2.31-1.87,4.17-4.17,4.17s-4.17-1.87-4.17-4.17s1.87-4.17,4.17-4.17s4.17,1.87,4.17,4.17Z" fill="#225fb2"/><path d="M1212.55,238.69c0,2.31-1.87,4.17-4.17,4.17s-4.17-1.87-4.17-4.17s1.87-4.17,4.17-4.17s4.17,1.87,4.17,4.17Z" fill="#225fb2"/><path d="M1248.42,238.69c0,2.31-1.87,4.17-4.17,4.17s-4.17-1.87-4.17-4.17s1.87-4.17,4.17-4.17s4.17,1.87,4.17,4.17Z" fill="#225fb2"/></g></g></g><g id="ek2omF7utZx233_to" transform="translate(1190.434998,55.209999)"><g transform="translate(-1190.434998,-55.209999)"><g><path d="M1140.79,4.17c0,2.31-1.87,4.17-4.17,4.17s-4.17-1.87-4.17-4.17s1.87-4.17,4.17-4.17s4.17,1.87,4.17,4.17Z" fill="#225fb2"/><path d="M1176.67,4.17c0,2.31-1.87,4.17-4.17,4.17s-4.17-1.87-4.17-4.17s1.87-4.17,4.17-4.17s4.17,1.87,4.17,4.17Z" fill="#225fb2"/><path d="M1212.55,4.17c0,2.31-1.87,4.17-4.17,4.17s-4.17-1.87-4.17-4.17s1.87-4.17,4.17-4.17s4.17,1.87,4.17,4.17Z" fill="#225fb2"/><path d="M1248.42,4.17c0,2.31-1.87,4.17-4.17,4.17s-4.17-1.87-4.17-4.17s1.87-4.17,4.17-4.17s4.17,1.87,4.17,4.17Z" fill="#225fb2"/></g><g><path d="M1140.79,38.2c0,2.31-1.87,4.17-4.17,4.17s-4.17-1.87-4.17-4.17s1.87-4.17,4.17-4.17s4.17,1.87,4.17,4.17Z" fill="#225fb2"/><path d="M1176.67,38.2c0,2.31-1.87,4.17-4.17,4.17s-4.17-1.87-4.17-4.17s1.87-4.17,4.17-4.17s4.17,1.87,4.17,4.17Z" fill="#225fb2"/><path d="M1212.55,38.2c0,2.31-1.87,4.17-4.17,4.17s-4.17-1.87-4.17-4.17s1.87-4.17,4.17-4.17s4.17,1.87,4.17,4.17Z" fill="#225fb2"/><path d="M1248.42,38.2c0,2.31-1.87,4.17-4.17,4.17s-4.17-1.87-4.17-4.17s1.87-4.17,4.17-4.17s4.17,1.87,4.17,4.17Z" fill="#225fb2"/></g><g><path d="M1140.79,72.23c0,2.31-1.87,4.17-4.17,4.17s-4.17-1.87-4.17-4.17s1.87-4.17,4.17-4.17s4.17,1.87,4.17,4.17Z" fill="#225fb2"/><path d="M1176.67,72.23c0,2.31-1.87,4.17-4.17,4.17s-4.17-1.87-4.17-4.17s1.87-4.17,4.17-4.17s4.17,1.87,4.17,4.17Z" fill="#225fb2"/><path d="M1212.55,72.23c0,2.31-1.87,4.17-4.17,4.17s-4.17-1.87-4.17-4.17s1.87-4.17,4.17-4.17s4.17,1.87,4.17,4.17Z" fill="#225fb2"/><path d="M1248.42,72.23c0,2.31-1.87,4.17-4.17,4.17s-4.17-1.87-4.17-4.17s1.87-4.17,4.17-4.17s4.17,1.87,4.17,4.17Z" fill="#225fb2"/></g><g><path d="M1140.79,106.25c0,2.31-1.87,4.17-4.17,4.17s-4.17-1.87-4.17-4.17s1.87-4.17,4.17-4.17s4.17,1.87,4.17,4.17Z" fill="#225fb2"/><path d="M1176.67,106.25c0,2.31-1.87,4.17-4.17,4.17s-4.17-1.87-4.17-4.17s1.87-4.17,4.17-4.17s4.17,1.87,4.17,4.17Z" fill="#225fb2"/><path d="M1212.55,106.25c0,2.31-1.87,4.17-4.17,4.17s-4.17-1.87-4.17-4.17s1.87-4.17,4.17-4.17s4.17,1.87,4.17,4.17Z" fill="#225fb2"/><path d="M1248.42,106.25c0,2.31-1.87,4.17-4.17,4.17s-4.17-1.87-4.17-4.17s1.87-4.17,4.17-4.17s4.17,1.87,4.17,4.17Z" fill="#225fb2"/></g></g></g><g id="ek2omF7utZx254_to" transform="translate(1260.49,245.257)"><circle style="mix-blend-mode:multiply" r="65.07" transform="rotate(-45) translate(0,0)" fill="#225fb2"/></g></g><circle r="128.48" transform="matrix(.707107-.707107 0.707107 0.707107 1998.52 145.125)" fill="none"/><circle r="128.48" transform="matrix(.707107-.707107 0.707107 0.707107 1322.23 733.155)" fill="none"/><g id="ek2omF7utZx257_to" transform="translate(1900.400024,212.809998)"><path d="M1831.63,212.81c0-37.98,30.79-68.77,68.77-68.77s68.77,30.79,68.77,68.77-30.79,68.77-68.77,68.77" transform="translate(-1900.400024,-212.809998)" fill="none" stroke="#225fb2" stroke-width="2.5" stroke-miterlimit="10"/></g><g id="ek2omF7utZx258_to" transform="translate(4.41,89.058439)"><path d="M1420.51,176.39l-8.69,8.69l8.84,8.84-8.29,8.29-8.84-8.84-8.69,8.69-7.89-7.89l8.69-8.69-8.89-8.89l8.29-8.29l8.89,8.89l8.69-8.69l7.89,7.89Z" transform="translate(0,0)" fill="#225fb2"/></g><g id="ek2omF7utZx259_to" transform="translate(2057.715149,368.024994)"><path d="M2074.52,359.16l-8.69,8.69l8.84,8.84-8.29,8.29-8.84-8.84-8.69,8.69-7.89-7.89l8.69-8.69-8.89-8.89l8.29-8.29l8.89,8.89l8.69-8.69l7.89,7.89Z" transform="translate(-2057.715149,-368.024994)" fill="#225fb2"/></g><g id="ek2omF7utZx260_to" transform="translate(1098,526.68)"><rect style="mix-blend-mode:multiply" width="153.58" height="206.31" rx="0" ry="0" transform="translate(0,0)" fill="#225fb2"/></g><g id="ek2omF7utZx261_to" transform="translate(1473.345032,596.330017)"><g transform="translate(-1473.345032,-596.330017)"><path d="M1546.42,596.33c0,21.25-17.23,38.48-38.48,38.48s-38.48-17.23-38.48-38.48s17.23-38.48,38.48-38.48" fill="none" stroke="#225fb2" stroke-width="2.5" stroke-miterlimit="10"/><g><line x1="1400.27" y1="618.38" x2="1418.35" y2="600.29" fill="none" stroke="#225fb2" stroke-width="1.5" stroke-miterlimit="10"/><line x1="1416.03" y1="618.38" x2="1434.11" y2="600.29" fill="none" stroke="#225fb2" stroke-width="1.5" stroke-miterlimit="10"/><line x1="1431.79" y1="618.38" x2="1449.87" y2="600.29" fill="none" stroke="#225fb2" stroke-width="1.5" stroke-miterlimit="10"/><line x1="1447.55" y1="618.38" x2="1465.63" y2="600.29" fill="none" stroke="#225fb2" stroke-width="1.5" stroke-miterlimit="10"/><line x1="1463.31" y1="618.38" x2="1481.4" y2="600.29" fill="none" stroke="#225fb2" stroke-width="1.5" stroke-miterlimit="10"/><line x1="1479.08" y1="618.38" x2="1497.16" y2="600.29" fill="none" stroke="#225fb2" stroke-width="1.5" stroke-miterlimit="10"/><line x1="1494.84" y1="618.38" x2="1512.92" y2="600.29" fill="none" stroke="#225fb2" stroke-width="1.5" stroke-miterlimit="10"/></g></g></g><g><g id="ek2omF7utZx272_to" transform="translate(2026.26947,693.163696)"><g transform="translate(-2026.26947,-693.163696)"><circle r="96.89" transform="translate(2026.28 693.33)" fill="none" stroke="#225fb2" stroke-width="2" stroke-miterlimit="10"/><circle r="130.38" transform="matrix(.924613-.380909 0.380909 0.924613 2026.27 693.164)" fill="none" stroke="#225fb2" stroke-width="2" stroke-miterlimit="10"/><path d="M2026.28,806.97c-62.66,0-113.64-50.98-113.64-113.64s50.98-113.64,113.64-113.64s113.64,50.98,113.64,113.64-50.98,113.64-113.64,113.64Z" fill="none" stroke="#225fb2" stroke-width="2" stroke-miterlimit="10"/><circle r="96.89" transform="translate(2026.28 693.33)" fill="none" stroke="#225fb2" stroke-width="2" stroke-miterlimit="10"/><circle r="78.92" transform="translate(2026.28 693.33)" fill="none" stroke="#225fb2" stroke-width="2" stroke-miterlimit="10"/><circle r="62.46" transform="translate(2026.28 693.33)" fill="none" stroke="#225fb2" stroke-width="2" stroke-miterlimit="10"/></g></g><g id="ek2omF7utZx279_to" transform="translate(1911.44,615.21)"><circle r="33.78" transform="translate(0,0)" fill="#225fb2"/></g></g><g id="ek2omF7utZx280_to" transform="translate(2046.460022,434.570007)"><g transform="translate(-2046.460022,-434.570007)"><rect style="mix-blend-mode:multiply" width="90.5" height="12.14" rx="0" ry="0" transform="translate(2023.03 428.5)" fill="#225fb2"/><rect style="mix-blend-mode:multiply" width="25.52" height="12.14" rx="0" ry="0" transform="translate(1979.39 428.5)" fill="#225fb2"/></g></g><g id="ek2omF7utZx283_to" transform="translate(1314.8,548.2)"><rect style="mix-blend-mode:multiply" width="25.52" height="25.52" rx="0" ry="0" transform="translate(0,0)" fill="#225fb2"/></g><g id="ek2omF7utZx284_to" transform="translate(1990.81,87.84)"><rect style="mix-blend-mode:multiply" width="100.86" height="55.91" rx="0" ry="0" transform="translate(0,0)" fill="#225fb2"/></g><g id="ek2omF7utZx285_to" transform="translate(1650.87,696.388)"><circle style="mix-blend-mode:multiply" r="52.22" transform="rotate(-19.609999) translate(0,0)" fill="none" stroke="#225fb2" stroke-width="19" stroke-miterlimit="10"/></g></g><clipPath id="ek2omF7utZx286"><rect width="891.44" height="594.3" rx="0" ry="0" transform="translate(1166.27 87.84)" fill="none"/></clipPath></g></g></g></svg>
